g Tree12Summer_afsTREE_modified
v 0.2894585 1.170915 -0.04777168
v 0.1544814 1.170915 -0.3071444
v 0.1478565 0.00363285 -0.3119642
v 0.3178577 0.003632811 0.01471086
v 0.0516559 4.140066 -0.1893799
v 0.1254565 4.140066 -0.04756431
v 0.02819544 5.110064 -0.291491
v 0.07853559 5.110064 -0.1947571
v -0.01108731 6.531285 -0.1504261
v 0.1544814 1.170915 -0.3071444
v -0.1154729 1.170915 -0.3071443
v -0.1921459 0.00363285 -0.3119642
v 0.1478565 0.00363285 -0.3119642
v -0.09594532 4.140066 -0.1893799
v 0.0516559 4.140066 -0.1893799
v -0.07248487 5.110064 -0.291491
v 0.02819544 5.110064 -0.291491
v -0.01108731 6.531285 -0.1504261
v -0.1154729 1.170915 -0.3071443
v -0.25045 1.170915 -0.04777166
v -0.3621471 0.003632811 0.0147109
v -0.1921459 0.00363285 -0.3119642
v -0.1697459 4.140066 -0.04756428
v -0.09594532 4.140066 -0.1893799
v -0.122825 5.110064 -0.1947571
v -0.07248487 5.110064 -0.291491
v -0.01108731 6.531285 -0.1504261
v -0.25045 1.170915 -0.04777166
v -0.1154728 1.170915 0.211601
v -0.1921459 0.003632772 0.3413859
v -0.3621471 0.003632811 0.0147109
v -0.09594528 4.140066 0.09425129
v -0.1697459 4.140066 -0.04756428
v -0.07248483 5.110064 -0.09802326
v -0.122825 5.110064 -0.1947571
v -0.01108731 6.531285 -0.1504261
v -0.1154728 1.170915 0.211601
v 0.1544814 1.170915 0.211601
v 0.1478564 0.003632772 0.3413859
v -0.1921459 0.003632772 0.3413859
v 0.05165588 4.140066 0.09425129
v -0.09594528 4.140066 0.09425129
v 0.02819543 5.110064 -0.09802326
v -0.07248483 5.110064 -0.09802326
v -0.01108731 6.531285 -0.1504261
v 0.1544814 1.170915 0.211601
v 0.2894585 1.170915 -0.04777168
v 0.3178577 0.003632811 0.01471086
v 0.1478564 0.003632772 0.3413859
v 0.1254565 4.140066 -0.04756431
v 0.05165588 4.140066 0.09425129
v 0.07853559 5.110064 -0.1947571
v 0.02819543 5.110064 -0.09802326
v -0.01108731 6.531285 -0.1504261
v 0.1478565 0.00363285 -0.3119642
v -0.02214471 0.003632505 0.01471086
v 0.3178577 0.003632811 0.01471086
v 0.1478564 0.003632772 0.3413859
v -0.1921459 0.003632772 0.3413859
v -0.3621471 0.003632811 0.0147109
v -0.1921459 0.00363285 -0.3119642
v -0.0498058 4.42421 -0.0492739
v -1.545896 2.438853 -0.02600351
v -0.9699209 2.43885 1.031938
v -0.8298445 2.438851 -1.155505
v 0.02169899 2.438851 -1.441583
v 0.8911558 2.438851 -1.080493
v -0.0323434 2.43885 1.446328
v 0.9211811 2.43885 1.010041
v 1.348058 2.43885 -0.0396013
v -0.03533724 5.092863 -0.1237515
v -0.4302424 3.434654 1.019187
v 0.5335283 3.434652 0.8740294
v -1.090872 3.434653 0.1621834
v -1.072733 3.434652 -0.564433
v -0.5575775 3.434652 -1.125575
v 1.108059 3.434652 0.2758432
v 1.040214 3.434652 -0.5698797
v 0.3602774 3.434652 -1.184917
v -0.01927866 5.498953 -0.1901208
v 0.8113067 4.135077 -0.3852278
v 0.2451948 4.154493 -0.885228
v 0.6316734 4.141237 0.4341267
v 0.1913948 4.156338 0.7854246
v -0.3981906 4.176561 0.7591168
v -0.3959454 4.176484 -0.928337
v -0.8640925 4.192542 -0.4666266
v -0.8905047 4.193448 0.2436218
v -0.0245786 6.06709 -0.1855468
v -0.4246699 4.785711 -0.7344312
v -0.6935328 4.799917 -0.251597
v 0.1890788 4.790218 -0.7341616
v 0.5090293 4.801268 -0.4743943
v 0.5824229 4.816065 -0.04885661
v -0.6240861 4.816008 0.2134186
v -0.2208572 4.827757 0.4758395
v 0.2909444 4.82842 0.3836515
v -0.02970032 6.686502 -0.2015284
v -0.5652105 5.439251 -0.1133796
v -0.277786 5.451277 0.2557117
v -0.362172 5.443066 -0.5915899
v -0.05399795 5.452419 -0.7550836
v 0.3018818 5.464945 -0.6716506
v 0.1075546 5.464897 0.3552672
v 0.4453182 5.474843 0.127751
v 0.5426126 5.475404 -0.3015659
v -0.05112953 7.036676 -0.1514658
v 0.01153664 6.020469 0.2786569
v 0.314584 6.030209 0.05124801
v -0.3727727 6.02356 0.1073149
v -0.5007059 6.031135 -0.1446081
v -0.42799 6.041279 -0.4315874
v 0.4007821 6.04124 -0.2593548
v 0.2214326 6.049295 -0.536166
v -0.1248145 6.04975 -0.62117
v -0.02249376 7.293909 -0.1744823
v 0.298185 6.485566 -0.04468181
v 0.2637366 6.493319 -0.3442517
v 0.02604508 6.488026 0.1504787
v -0.1984299 6.494055 0.1371333
v -0.3663587 6.502129 -0.02814117
v 0.08499651 6.502098 -0.5282811
v -0.1772373 6.508509 -0.5163057
v -0.3747697 6.508871 -0.312599
v -0.0498058 4.42421 -0.0492739
v -0.9699209 2.43885 1.031938
v -1.545896 2.438853 -0.02600351
v -0.8298445 2.438851 -1.155505
v 0.02169899 2.438851 -1.441583
v 0.8911558 2.438851 -1.080493
v -0.0323434 2.43885 1.446328
v 0.9211811 2.43885 1.010041
v 1.348058 2.43885 -0.0396013
v -0.03533724 5.092863 -0.1237515
v 0.5335283 3.434652 0.8740294
v -0.4302424 3.434654 1.019187
v -1.090872 3.434653 0.1621834
v -1.072733 3.434652 -0.564433
v -0.5575775 3.434652 -1.125575
v 1.108059 3.434652 0.2758432
v 1.040214 3.434652 -0.5698797
v 0.3602774 3.434652 -1.184917
v -0.01927866 5.498953 -0.1901208
v 0.2451948 4.154493 -0.885228
v 0.8113067 4.135077 -0.3852278
v 0.6316734 4.141237 0.4341267
v 0.1913948 4.156338 0.7854246
v -0.3981906 4.176561 0.7591168
v -0.3959454 4.176484 -0.928337
v -0.8640925 4.192542 -0.4666266
v -0.8905047 4.193448 0.2436218
v -0.0245786 6.06709 -0.1855468
v -0.6935328 4.799917 -0.251597
v -0.4246699 4.785711 -0.7344312
v 0.1890788 4.790218 -0.7341616
v 0.5090293 4.801268 -0.4743943
v 0.5824229 4.816065 -0.04885661
v -0.6240861 4.816008 0.2134186
v -0.2208572 4.827757 0.4758395
v 0.2909444 4.82842 0.3836515
v -0.02970032 6.686502 -0.2015284
v -0.277786 5.451277 0.2557117
v -0.5652105 5.439251 -0.1133796
v -0.362172 5.443066 -0.5915899
v -0.05399795 5.452419 -0.7550836
v 0.3018818 5.464945 -0.6716506
v 0.1075546 5.464897 0.3552672
v 0.4453182 5.474843 0.127751
v 0.5426126 5.475404 -0.3015659
v -0.05112953 7.036676 -0.1514658
v 0.314584 6.030209 0.05124801
v 0.01153664 6.020469 0.2786569
v -0.3727727 6.02356 0.1073149
v -0.5007059 6.031135 -0.1446081
v -0.42799 6.041279 -0.4315874
v 0.4007821 6.04124 -0.2593548
v 0.2214326 6.049295 -0.536166
v -0.1248145 6.04975 -0.62117
v -0.02249376 7.293909 -0.1744823
v 0.2637366 6.493319 -0.3442517
v 0.298185 6.485566 -0.04468181
v 0.02604508 6.488026 0.1504787
v -0.1984299 6.494055 0.1371333
v -0.3663587 6.502129 -0.02814117
v 0.08499651 6.502098 -0.5282811
v -0.1772373 6.508509 -0.5163057
v -0.3747697 6.508871 -0.312599
v -0.02635296 7.694747 -0.1758099
v 0.1938561 6.876562 -0.08642618
v 0.1697576 6.882857 -0.2959901
v 0.003480716 6.87856 0.05009829
v -0.1535507 6.883456 0.04076247
v -0.2710252 6.890012 -0.07485517
v 0.04472018 6.889987 -0.4247279
v -0.1387253 6.895193 -0.4163505
v -0.2769091 6.895486 -0.2738475
v -0.02635296 7.694747 -0.1758099
v 0.1697576 6.882857 -0.2959901
v 0.1938561 6.876562 -0.08642618
v 0.003480716 6.87856 0.05009829
v -0.1535507 6.883456 0.04076247
v -0.2710252 6.890012 -0.07485517
v 0.04472018 6.889987 -0.4247279
v -0.1387253 6.895193 -0.4163505
v -0.2769091 6.895486 -0.2738475
vt 0.5488421 0.888386
vt 0.5552452 0.8879067
vt 0.5539381 0.862205
vt 0.5457506 0.8626947
vt 0.5573353 0.9426045
vt 0.5537555 0.9426125
vt 0.5558301 0.9650998
vt 0.554491 0.9651992
vt 0.5594417 0.9839557
vt 0.5552452 0.8879067
vt 0.5611751 0.8877432
vt 0.5614983 0.8618039
vt 0.5539381 0.862205
vt 0.5606869 0.9426075
vt 0.5573353 0.9426045
vt 0.5570577 0.9650512
vt 0.5558301 0.9650998
vt 0.5594417 0.9839557
vt 0.5611751 0.8877432
vt 0.5676701 0.8879355
vt 0.5696996 0.8617083
vt 0.5614983 0.8618039
vt 0.5642742 0.9425849
vt 0.5606869 0.9426075
vt 0.5583967 0.9650207
vt 0.5570577 0.9650512
vt 0.5594417 0.9839557
vt 0.5676701 0.8879355
vt 0.5742084 0.8885162
vt 0.5778964 0.8623082
vt 0.5696996 0.8617083
vt 0.5678077 0.9426737
vt 0.5642742 0.9425849
vt 0.5597712 0.9650108
vt 0.5583967 0.9650207
vt 0.5594417 0.9839557
vt 0.5742084 0.8885162
vt 0.580163 0.889507
vt 0.5853293 0.8638502
vt 0.5778964 0.8623082
vt 0.5710299 0.9430563
vt 0.5678077 0.9426737
vt 0.5610616 0.9650536
vt 0.5597712 0.9650108
vt 0.5594417 0.9839557
vt 0.5424212 0.8891417
vt 0.5488421 0.888386
vt 0.5457506 0.8626947
vt 0.5375661 0.8633971
vt 0.5537555 0.9426125
vt 0.5502425 0.942785
vt 0.554491 0.9651992
vt 0.5531282 0.9653532
vt 0.5594417 0.9839557
vt 0.5882926 0.8495665
vt 0.5830944 0.8559373
vt 0.5905275 0.8574794
vt 0.5853293 0.8638502
vt 0.5778964 0.8623082
vt 0.5756612 0.8543953
vt 0.5808594 0.8480244
vt 0.1309599 0.8708301
vt 0.009798486 0.8742393
vt 0.05645596 0.9601183
vt 0.06780297 0.7825515
vt 0.1367832 0.7593288
vt 0.2072144 0.7886406
vt 0.1324054 0.9937565
vt 0.2096466 0.9583407
vt 0.2442262 0.8731354
vt 0.1309599 0.8708301
vt 0.009798486 0.8742393
vt 0.05645596 0.9601183
vt 0.06780297 0.7825515
vt 0.1367832 0.7593288
vt 0.2072144 0.7886406
vt 0.1324054 0.9937565
vt 0.2096466 0.9583407
vt 0.2442262 0.8731354
vt 0.1309599 0.8708301
vt 0.009798486 0.8742393
vt 0.05645596 0.9601183
vt 0.06780297 0.7825515
vt 0.1367832 0.7593288
vt 0.2072144 0.7886406
vt 0.1324054 0.9937565
vt 0.2096466 0.9583407
vt 0.2442262 0.8731354
vt 0.1309599 0.8708301
vt 0.009798486 0.8742393
vt 0.05645596 0.9601183
vt 0.06780297 0.7825515
vt 0.1367832 0.7593288
vt 0.2072144 0.7886406
vt 0.1324054 0.9937565
vt 0.2096466 0.9583407
vt 0.2442262 0.8731354
vt 0.1309599 0.8708301
vt 0.009798486 0.8742393
vt 0.05645596 0.9601183
vt 0.06780297 0.7825515
vt 0.1367832 0.7593288
vt 0.2072144 0.7886406
vt 0.1324054 0.9937565
vt 0.2096466 0.9583407
vt 0.2442262 0.8731354
vt 0.1309599 0.8708301
vt 0.009798486 0.8742393
vt 0.05645596 0.9601183
vt 0.06780297 0.7825515
vt 0.1367832 0.7593288
vt 0.2072144 0.7886406
vt 0.1324054 0.9937565
vt 0.2096466 0.9583407
vt 0.2442262 0.8731354
vt 0.1309599 0.8708301
vt 0.009798486 0.8742393
vt 0.05645596 0.9601183
vt 0.06780297 0.7825515
vt 0.1367832 0.7593288
vt 0.2072144 0.7886406
vt 0.1324054 0.9937565
vt 0.2096466 0.9583407
vt 0.2442262 0.8731354
vt 0.1309599 0.8708301
vt 0.05645596 0.9601183
vt 0.009798486 0.8742393
vt 0.06780297 0.7825515
vt 0.1367832 0.7593288
vt 0.2072144 0.7886406
vt 0.1324054 0.9937565
vt 0.2096466 0.9583407
vt 0.2442262 0.8731354
vt 0.1309599 0.8708301
vt 0.05645596 0.9601183
vt 0.009798486 0.8742393
vt 0.06780297 0.7825515
vt 0.1367832 0.7593288
vt 0.2072144 0.7886406
vt 0.1324054 0.9937565
vt 0.2096466 0.9583407
vt 0.2442262 0.8731354
vt 0.1309599 0.8708301
vt 0.05645596 0.9601183
vt 0.009798486 0.8742393
vt 0.06780297 0.7825515
vt 0.1367832 0.7593288
vt 0.2072144 0.7886406
vt 0.1324054 0.9937565
vt 0.2096466 0.9583407
vt 0.2442262 0.8731354
vt 0.1309599 0.8708301
vt 0.05645596 0.9601183
vt 0.009798486 0.8742393
vt 0.06780297 0.7825515
vt 0.1367832 0.7593288
vt 0.2072144 0.7886406
vt 0.1324054 0.9937565
vt 0.2096466 0.9583407
vt 0.2442262 0.8731354
vt 0.1309599 0.8708301
vt 0.05645596 0.9601183
vt 0.009798486 0.8742393
vt 0.06780297 0.7825515
vt 0.1367832 0.7593288
vt 0.2072144 0.7886406
vt 0.1324054 0.9937565
vt 0.2096466 0.9583407
vt 0.2442262 0.8731354
vt 0.1309599 0.8708301
vt 0.05645596 0.9601183
vt 0.009798486 0.8742393
vt 0.06780297 0.7825515
vt 0.1367832 0.7593288
vt 0.2072144 0.7886406
vt 0.1324054 0.9937565
vt 0.2096466 0.9583407
vt 0.2442262 0.8731354
vt 0.1309599 0.8708301
vt 0.05645596 0.9601183
vt 0.009798486 0.8742393
vt 0.06780297 0.7825515
vt 0.1367832 0.7593288
vt 0.2072144 0.7886406
vt 0.1324054 0.9937565
vt 0.2096466 0.9583407
vt 0.2442262 0.8731354
vt 0.131902 0.8691874
vt 0.09943999 0.8701009
vt 0.1119406 0.8931099
vt 0.1149807 0.8455355
vt 0.1334621 0.8393137
vt 0.1523323 0.847167
vt 0.1322893 0.9021223
vt 0.152984 0.8926336
vt 0.1622486 0.8698052
vt 0.131902 0.8691874
vt 0.1119406 0.8931099
vt 0.09943999 0.8701009
vt 0.1149807 0.8455355
vt 0.1334621 0.8393137
vt 0.1523323 0.847167
vt 0.1322893 0.9021223
vt 0.152984 0.8926336
vt 0.1622486 0.8698052
vn 0.8868529 0.02223929 -0.4615166
vn 0.8868433 0.02271717 -0.4615116
vn 0.8870678 -0.003128396 -0.4616285
vn 0.8870678 -0.003128396 -0.4616285
vn 0.8870284 0.009937203 -0.461608
vn 0.8869946 0.01321694 -0.4615904
vn 0.886857 0.02202222 -0.461519
vn 0.8869082 0.01922168 -0.4615456
vn 0.8848857 0.07016509 -0.4604932
vn -1.533152E-07 0.02171823 -0.9997641
vn -1.529389E-07 0.02148347 -0.9997693
vn -1.251032E-07 0.004129095 -0.9999915
vn -1.251032E-07 0.004129096 -0.9999915
vn -1.296707E-07 -0.03190567 -0.9994909
vn -1.301401E-07 -0.03126885 -0.999511
vn 0 -0.005169997 -0.9999866
vn 0 -0.004655247 -0.9999892
vn 0 0.09877073 -0.9951102
vn -0.8862841 0.04213973 -0.4612209
vn -0.8862636 0.04268622 -0.4612101
vn -0.8854704 0.06006488 -0.4607974
vn -0.8854704 0.06006488 -0.4607974
vn -0.8870721 -6.009066E-05 -0.4616308
vn -0.8870702 -0.002060859 -0.4616298
vn -0.8867809 0.02562607 -0.4614792
vn -0.8866971 0.02908168 -0.4614356
vn -0.8839486 0.08384538 -0.4600053
vn -0.8850968 0.06669378 0.4606033
vn -0.8850247 0.06790122 0.4605657
vn -0.8817922 0.1089418 0.4588835
vn -0.8817922 0.1089418 0.4588836
vn -0.8851741 0.06537972 0.4606433
vn -0.8849236 0.06955705 0.460513
vn -0.8838388 0.08530176 0.4599485
vn -0.8839867 0.08333183 0.4600254
vn -0.8857167 0.05525854 0.4609257
vn 0 0.07584263 0.9971198
vn 0 0.0753776 0.9971551
vn 0 0.1105046 0.9938756
vn 0 0.1105046 0.9938756
vn 0 0.1158854 0.9932626
vn 0 0.1165694 0.9931825
vn 0 0.1173013 0.9930964
vn 0 0.1177009 0.993049
vn 0 0.03684667 0.9993209
vn 0.8860697 0.04752526 0.4611093
vn 0.8860675 0.04757941 0.4611081
vn 0.8861232 0.04624263 0.4611372
vn 0.8861232 0.04624263 0.4611372
vn 0.8841251 0.08144443 0.4600974
vn 0.8843206 0.07870183 0.4601991
vn 0.8844878 0.07627562 0.4602862
vn 0.8843076 0.07888632 0.4601924
vn 0.8863077 0.04150411 0.4612333
vn 4.200499E-07 -1 -8.348034E-07
vn 0 -1 -1.192093E-07
vn 8.975696E-07 -1 -1.192093E-07
vn 4.2005E-07 -1 5.96385E-07
vn -4.200499E-07 -1 5.963851E-07
vn -8.975694E-07 -1 -1.192093E-07
vn -4.2005E-07 -1 -8.348035E-07
vn -0.001860654 -0.9999017 0.01390046
vn 0.7985785 -0.6015368 0.02063753
vn 0.5487291 -0.5814385 -0.6006875
vn 0.506594 -0.5629188 0.6530582
vn -0.02990931 -0.5746351 0.8178631
vn -0.5703297 -0.5749964 0.586603
vn -0.005703576 -0.6017155 -0.7986901
vn -0.5810942 -0.5856932 -0.5650603
vn -0.8176458 -0.575648 0.0091996
vn 0.01287737 -0.9998991 0.005999509
vn 0.2959568 -0.58887 -0.7520915
vn -0.3808486 -0.5691405 -0.7287203
vn 0.7950796 -0.5501376 -0.255337
vn 0.7662997 -0.5621014 0.31117
vn 0.3596312 -0.5628783 0.7441999
vn -0.7608156 -0.5898332 -0.2706594
vn -0.7371378 -0.5740414 0.356517
vn -0.2737482 -0.563918 0.7791396
vn -0.03725223 -0.9974645 0.06063585
vn -0.8115216 -0.5295438 0.2470144
vn -0.3529297 -0.483559 0.8010064
vn -0.7090824 -0.5454337 -0.4468828
vn -0.2623686 -0.5938297 -0.7606109
vn 0.3021625 -0.6115026 -0.7312744
vn 0.2858643 -0.5278636 0.799776
vn 0.7577001 -0.5606678 0.3339796
vn 0.7434684 -0.5965724 -0.3022516
vn -0.02465696 -0.9993198 0.02742363
vn 0.4508362 -0.4666946 0.7608829
vn 0.867564 -0.4669213 0.1712228
vn -0.2961043 -0.418455 0.8586137
vn -0.7697334 -0.4317747 0.4701926
vn -0.8792076 -0.4451487 -0.1698133
vn 0.7398095 -0.4985796 -0.4517746
vn 0.1894358 -0.4854732 -0.853481
vn -0.4849737 -0.4641355 -0.7412009
vn 0.03032908 -0.999539 0.001397128
vn 0.9097527 -0.3987658 -0.115481
vn 0.5159314 -0.38659 -0.7644364
vn 0.68327 -0.3785561 0.6243696
vn 0.1295586 -0.4079416 0.9037689
vn -0.504729 -0.4259769 0.7508611
vn -0.1401131 -0.4236417 -0.8949279
vn -0.7397385 -0.4305407 -0.5171282
vn -0.8862896 -0.4325028 0.1656263
vn 0.001116587 -0.9994137 -0.0342182
vn -0.09943104 -0.3930473 -0.9141266
vn -0.7570882 -0.3818645 -0.5300916
vn 0.6381369 -0.3744335 -0.6727414
vn 0.9068117 -0.4062026 -0.1126583
vn 0.7412 -0.4265018 0.5183809
vn -0.8982168 -0.4213453 0.1251992
vn -0.5296799 -0.4308729 0.7306078
vn 0.1496929 -0.4339872 0.8883958
vn -0.02897331 -0.9994137 -0.01823939
vn -0.8391787 -0.3932386 -0.3756892
vn -0.8397534 -0.3820464 0.3858169
vn -0.2584766 -0.3746183 -0.8904218
vn 0.3605701 -0.4063901 -0.8395452
vn 0.8216061 -0.4266865 -0.378024
vn -0.3454183 -0.4215296 0.8384503
vn 0.3631665 -0.4310534 0.8260164
vn 0.8423415 -0.434168 0.3193099
vn 0.001860654 0.9999017 -0.01390046
vn -0.5487291 0.5814385 0.6006875
vn -0.7985785 0.6015368 -0.02063753
vn -0.506594 0.5629188 -0.6530582
vn 0.02990931 0.5746351 -0.8178631
vn 0.5703297 0.5749964 -0.586603
vn 0.005703576 0.6017155 0.7986901
vn 0.5810942 0.5856932 0.5650603
vn 0.8176458 0.575648 -0.0091996
vn -0.01287737 0.9998991 -0.005999509
vn 0.3808486 0.5691405 0.7287203
vn -0.2959568 0.58887 0.7520915
vn -0.7950796 0.5501376 0.255337
vn -0.7662997 0.5621014 -0.31117
vn -0.3596312 0.5628783 -0.7441999
vn 0.7608156 0.5898332 0.2706594
vn 0.7371378 0.5740414 -0.356517
vn 0.2737482 0.563918 -0.7791396
vn 0.03725223 0.9974645 -0.06063585
vn 0.3529297 0.483559 -0.8010064
vn 0.8115216 0.5295438 -0.2470144
vn 0.7090824 0.5454337 0.4468828
vn 0.2623686 0.5938297 0.7606109
vn -0.3021625 0.6115026 0.7312744
vn -0.2858643 0.5278636 -0.799776
vn -0.7577001 0.5606678 -0.3339796
vn -0.7434684 0.5965724 0.3022516
vn 0.02465696 0.9993198 -0.02742363
vn -0.867564 0.4669213 -0.1712228
vn -0.4508362 0.4666946 -0.7608829
vn 0.2961043 0.418455 -0.8586137
vn 0.7697334 0.4317747 -0.4701926
vn 0.8792076 0.4451487 0.1698133
vn -0.7398095 0.4985796 0.4517746
vn -0.1894358 0.4854732 0.853481
vn 0.4849737 0.4641355 0.7412009
vn -0.03032908 0.999539 -0.001397128
vn -0.5159314 0.38659 0.7644364
vn -0.9097527 0.3987658 0.115481
vn -0.68327 0.3785561 -0.6243696
vn -0.1295586 0.4079416 -0.9037689
vn 0.504729 0.4259769 -0.7508611
vn 0.1401131 0.4236417 0.8949279
vn 0.7397385 0.4305407 0.5171282
vn 0.8862896 0.4325028 -0.1656263
vn -0.001116587 0.9994137 0.0342182
vn 0.7570882 0.3818645 0.5300916
vn 0.09943104 0.3930473 0.9141266
vn -0.6381369 0.3744335 0.6727414
vn -0.9068117 0.4062026 0.1126583
vn -0.7412 0.4265018 -0.5183809
vn 0.8982168 0.4213453 -0.1251992
vn 0.5296799 0.4308729 -0.7306078
vn -0.1496929 0.4339872 -0.8883958
vn 0.02897331 0.9994137 0.01823939
vn 0.8397534 0.3820464 -0.3858169
vn 0.8391787 0.3932386 0.3756892
vn 0.2584766 0.3746183 0.8904218
vn -0.3605701 0.4063901 0.8395452
vn -0.8216061 0.4266865 0.378024
vn 0.3454183 0.4215296 -0.8384503
vn -0.3631665 0.4310534 -0.8260164
vn -0.8423415 0.434168 -0.3193099
vn -0.02578843 -0.9995589 -0.01473034
vn -0.8762471 -0.2787739 -0.3930344
vn -0.8745642 -0.2707932 0.4022542
vn -0.2695527 -0.2660208 -0.925513
vn 0.3776419 -0.2936315 -0.8781613
vn 0.8637661 -0.3122354 -0.3954961
vn -0.3623673 -0.3044716 0.8809012
vn 0.38318 -0.3150688 0.8682768
vn 0.8860888 -0.3190213 0.3362618
vn 0.02578843 0.9995589 0.01473034
vn 0.8745642 0.2707932 -0.4022542
vn 0.8762471 0.2787739 0.3930344
vn 0.2695527 0.2660208 0.925513
vn -0.3776419 0.2936315 0.8781613
vn -0.8637661 0.3122354 0.3954961
vn 0.3623673 0.3044716 -0.8809012
vn -0.38318 0.3150688 -0.8682768
vn -0.8860888 0.3190213 -0.3362618
g Tree12Summer_afsTREE_modified_0
f 3/3/3 2/2/2 1/1/1
f 4/4/4 3/3/3 1/1/1
f 2/2/2 5/5/5 1/1/1
f 5/5/5 6/6/6 1/1/1
f 5/5/5 7/7/7 6/6/6
f 7/7/7 8/8/8 6/6/6
f 7/7/7 9/9/9 8/8/8
f 12/12/12 11/11/11 10/10/10
f 13/13/13 12/12/12 10/10/10
f 11/11/11 14/14/14 10/10/10
f 14/14/14 15/15/15 10/10/10
f 14/14/14 16/16/16 15/15/15
f 16/16/16 17/17/17 15/15/15
f 16/16/16 18/18/18 17/17/17
f 21/21/21 20/20/20 19/19/19
f 22/22/22 21/21/21 19/19/19
f 20/20/20 23/23/23 19/19/19
f 23/23/23 24/24/24 19/19/19
f 23/23/23 25/25/25 24/24/24
f 25/25/25 26/26/26 24/24/24
f 25/25/25 27/27/27 26/26/26
f 30/30/30 29/29/29 28/28/28
f 31/31/31 30/30/30 28/28/28
f 29/29/29 32/32/32 28/28/28
f 32/32/32 33/33/33 28/28/28
f 32/32/32 34/34/34 33/33/33
f 34/34/34 35/35/35 33/33/33
f 34/34/34 36/36/36 35/35/35
f 39/39/39 38/38/38 37/37/37
f 40/40/40 39/39/39 37/37/37
f 38/38/38 41/41/41 37/37/37
f 41/41/41 42/42/42 37/37/37
f 41/41/41 43/43/43 42/42/42
f 43/43/43 44/44/44 42/42/42
f 43/43/43 45/45/45 44/44/44
f 48/48/48 47/47/47 46/46/46
f 49/49/49 48/48/48 46/46/46
f 47/47/47 50/50/50 46/46/46
f 50/50/50 51/51/51 46/46/46
f 50/50/50 52/52/52 51/51/51
f 52/52/52 53/53/53 51/51/51
f 52/52/52 54/54/54 53/53/53
f 57/57/57 56/56/56 55/55/55
f 58/58/58 56/56/56 57/57/57
f 59/59/59 56/56/56 58/58/58
f 60/60/60 56/56/56 59/59/59
f 61/61/61 56/56/56 60/60/60
f 55/55/55 56/56/56 61/61/61
f 64/64/64 63/63/63 62/62/62
f 63/63/63 65/65/65 62/62/62
f 65/65/65 66/66/66 62/62/62
f 66/66/66 67/67/67 62/62/62
f 64/64/64 62/62/62 68/68/68
f 69/69/69 68/68/68 62/62/62
f 62/62/62 70/70/70 69/69/69
f 70/70/70 62/62/62 67/67/67
f 73/73/73 72/72/72 71/71/71
f 72/72/72 74/74/74 71/71/71
f 74/74/74 75/75/75 71/71/71
f 75/75/75 76/76/76 71/71/71
f 73/73/73 71/71/71 77/77/77
f 78/78/78 77/77/77 71/71/71
f 71/71/71 79/79/79 78/78/78
f 79/79/79 71/71/71 76/76/76
f 82/82/82 81/81/81 80/80/80
f 81/81/81 83/83/83 80/80/80
f 83/83/83 84/84/84 80/80/80
f 84/84/84 85/85/85 80/80/80
f 82/82/82 80/80/80 86/86/86
f 87/87/87 86/86/86 80/80/80
f 80/80/80 88/88/88 87/87/87
f 88/88/88 80/80/80 85/85/85
f 91/91/91 90/90/90 89/89/89
f 90/90/90 92/92/92 89/89/89
f 92/92/92 93/93/93 89/89/89
f 93/93/93 94/94/94 89/89/89
f 91/91/91 89/89/89 95/95/95
f 96/96/96 95/95/95 89/89/89
f 89/89/89 97/97/97 96/96/96
f 97/97/97 89/89/89 94/94/94
f 100/100/100 99/99/99 98/98/98
f 99/99/99 101/101/101 98/98/98
f 101/101/101 102/102/102 98/98/98
f 102/102/102 103/103/103 98/98/98
f 100/100/100 98/98/98 104/104/104
f 105/105/105 104/104/104 98/98/98
f 98/98/98 106/106/106 105/105/105
f 106/106/106 98/98/98 103/103/103
f 109/109/109 108/108/108 107/107/107
f 108/108/108 110/110/110 107/107/107
f 110/110/110 111/111/111 107/107/107
f 111/111/111 112/112/112 107/107/107
f 109/109/109 107/107/107 113/113/113
f 114/114/114 113/113/113 107/107/107
f 107/107/107 115/115/115 114/114/114
f 115/115/115 107/107/107 112/112/112
f 118/118/118 117/117/117 116/116/116
f 117/117/117 119/119/119 116/116/116
f 119/119/119 120/120/120 116/116/116
f 120/120/120 121/121/121 116/116/116
f 118/118/118 116/116/116 122/122/122
f 123/123/123 122/122/122 116/116/116
f 116/116/116 124/124/124 123/123/123
f 124/124/124 116/116/116 121/121/121
f 127/127/127 126/126/126 125/125/125
f 128/128/128 127/127/127 125/125/125
f 129/129/129 128/128/128 125/125/125
f 130/130/130 129/129/129 125/125/125
f 125/125/125 126/126/126 131/131/131
f 131/131/131 132/132/132 125/125/125
f 133/133/133 125/125/125 132/132/132
f 125/125/125 133/133/133 130/130/130
f 136/136/136 135/135/135 134/134/134
f 137/137/137 136/136/136 134/134/134
f 138/138/138 137/137/137 134/134/134
f 139/139/139 138/138/138 134/134/134
f 134/134/134 135/135/135 140/140/140
f 140/140/140 141/141/141 134/134/134
f 142/142/142 134/134/134 141/141/141
f 134/134/134 142/142/142 139/139/139
f 145/145/145 144/144/144 143/143/143
f 146/146/146 145/145/145 143/143/143
f 147/147/147 146/146/146 143/143/143
f 148/148/148 147/147/147 143/143/143
f 143/143/143 144/144/144 149/149/149
f 149/149/149 150/150/150 143/143/143
f 151/151/151 143/143/143 150/150/150
f 143/143/143 151/151/151 148/148/148
f 154/154/154 153/153/153 152/152/152
f 155/155/155 154/154/154 152/152/152
f 156/156/156 155/155/155 152/152/152
f 157/157/157 156/156/156 152/152/152
f 152/152/152 153/153/153 158/158/158
f 158/158/158 159/159/159 152/152/152
f 160/160/160 152/152/152 159/159/159
f 152/152/152 160/160/160 157/157/157
f 163/163/163 162/162/162 161/161/161
f 164/164/164 163/163/163 161/161/161
f 165/165/165 164/164/164 161/161/161
f 166/166/166 165/165/165 161/161/161
f 161/161/161 162/162/162 167/167/167
f 167/167/167 168/168/168 161/161/161
f 169/169/169 161/161/161 168/168/168
f 161/161/161 169/169/169 166/166/166
f 172/172/172 171/171/171 170/170/170
f 173/173/173 172/172/172 170/170/170
f 174/174/174 173/173/173 170/170/170
f 175/175/175 174/174/174 170/170/170
f 170/170/170 171/171/171 176/176/176
f 176/176/176 177/177/177 170/170/170
f 178/178/178 170/170/170 177/177/177
f 170/170/170 178/178/178 175/175/175
f 181/181/181 180/180/180 179/179/179
f 182/182/182 181/181/181 179/179/179
f 183/183/183 182/182/182 179/179/179
f 184/184/184 183/183/183 179/179/179
f 179/179/179 180/180/180 185/185/185
f 185/185/185 186/186/186 179/179/179
f 187/187/187 179/179/179 186/186/186
f 179/179/179 187/187/187 184/184/184
f 190/190/190 189/189/189 188/188/188
f 189/189/189 191/191/191 188/188/188
f 191/191/191 192/192/192 188/188/188
f 192/192/192 193/193/193 188/188/188
f 190/190/190 188/188/188 194/194/194
f 195/195/195 194/194/194 188/188/188
f 188/188/188 196/196/196 195/195/195
f 196/196/196 188/188/188 193/193/193
f 199/199/199 198/198/198 197/197/197
f 200/200/200 199/199/199 197/197/197
f 201/201/201 200/200/200 197/197/197
f 202/202/202 201/201/201 197/197/197
f 197/197/197 198/198/198 203/203/203
f 203/203/203 204/204/204 197/197/197
f 205/205/205 197/197/197 204/204/204
f 197/197/197 205/205/205 202/202/202
