g TreeBoard003
v -0.170072 1.204014E-07 -0.354816
v -0.138201 1.001358E-07 -0.2358715
v 0.001749535 1.001358E-07 -0.2733711
v -0.03012155 1.204014E-07 -0.3923156
v 0.1367188 1.519918E-08 0.230341
v -0.003231726 1.519918E-08 0.2678406
v 0.1700719 -5.662441E-09 0.3548166
v 0.03012143 -5.662441E-09 0.3923163
v 0.03012143 -5.662441E-09 0.3923163
v 0.03012143 0.02286196 0.3923163
v 0.1700719 0.02286196 0.3548166
v 0.1700719 -5.662441E-09 0.3548166
v -0.03012155 1.204014E-07 -0.3923156
v 0.001749535 1.001358E-07 -0.2733711
v 0.001749535 0.02286207 -0.2733711
v -0.03012155 0.02286209 -0.3923156
v 0.1367188 0.02286198 0.230341
v 0.1367188 1.519918E-08 0.230341
v 0.1700719 0.02286196 0.3548166
v 0.1700719 -5.662441E-09 0.3548166
v -0.138201 1.001358E-07 -0.2358715
v -0.170072 1.204014E-07 -0.354816
v -0.170072 0.02286209 -0.354816
v -0.138201 0.02286207 -0.2358715
v -0.003231726 1.519918E-08 0.2678406
v -0.003231726 0.02286198 0.2678406
v 0.03012143 -5.662441E-09 0.3923163
v 0.03012143 0.02286196 0.3923163
v 0.02925871 0.1692703 0.3938106
v -0.004709844 0.1692703 0.2670383
v 0.1375977 0.1692703 0.2289071
v 0.1715662 0.1692703 0.3556794
v 0.002896423 0.1692704 -0.273805
v -0.1394111 0.1692704 -0.2356738
v -0.02891139 0.1692704 -0.3925133
v -0.1712189 0.1692704 -0.3543821
v 0.03012143 0.02286196 0.3923163
v 0.03357229 0.02652216 0.3863392
v 0.1640949 0.02652216 0.3513657
v 0.1700719 0.02286196 0.3548166
v 0.1700719 0.02286196 0.3548166
v 0.1640949 0.02652216 0.3513657
v 0.1332033 0.02652218 0.2360769
v 0.1367188 0.02286198 0.230341
v 0.1367188 0.02286198 0.230341
v 0.1332033 0.02652218 0.2360769
v 0.00268075 0.02652218 0.2710503
v -0.003231726 0.02286198 0.2678406
v -0.003231726 0.02286198 0.2678406
v 0.00268075 0.02652218 0.2710503
v 0.03357229 0.02652216 0.3863392
v 0.03012143 0.02286196 0.3923163
v 0.03357229 0.02652216 0.3863392
v 0.03012141 0.03018236 0.3923163
v 0.1700719 0.03018236 0.3548166
v 0.1640949 0.02652216 0.3513657
v 0.1640949 0.02652216 0.3513657
v 0.1700719 0.03018236 0.3548166
v 0.1367188 0.03018238 0.230341
v 0.1332033 0.02652218 0.2360769
v 0.1332033 0.02652218 0.2360769
v 0.1367188 0.03018238 0.230341
v -0.003231745 0.03018238 0.2678406
v 0.00268075 0.02652218 0.2710503
v 0.00268075 0.02652218 0.2710503
v -0.003231745 0.03018238 0.2678406
v 0.03012141 0.03018236 0.3923163
v 0.03357229 0.02652216 0.3863392
v 0.03012141 0.03018236 0.3923163
v 0.03012142 0.1302281 0.3923163
v 0.1700719 0.1302281 0.3548166
v 0.1700719 0.03018236 0.3548166
v 0.1700719 0.03018236 0.3548166
v 0.1700719 0.1302281 0.3548166
v 0.1367188 0.1302281 0.230341
v 0.1367188 0.03018238 0.230341
v 0.1367188 0.03018238 0.230341
v 0.1367188 0.1302281 0.230341
v -0.003231735 0.1302281 0.2678407
v -0.003231745 0.03018238 0.2678406
v -0.003231745 0.03018238 0.2678406
v -0.003231735 0.1302281 0.2678407
v 0.03012142 0.1302281 0.3923163
v 0.03012141 0.03018236 0.3923163
v 0.03012142 0.1302281 0.3923163
v 0.03357229 0.1399886 0.3863392
v 0.1640949 0.1399886 0.3513657
v 0.1700719 0.1302281 0.3548166
v 0.1700719 0.1302281 0.3548166
v 0.1640949 0.1399886 0.3513657
v 0.1332033 0.1399886 0.2360769
v 0.1367188 0.1302281 0.230341
v 0.1367188 0.1302281 0.230341
v 0.1332033 0.1399886 0.2360769
v 0.00268074 0.1399886 0.2710504
v -0.003231735 0.1302281 0.2678407
v -0.003231735 0.1302281 0.2678407
v 0.00268074 0.1399886 0.2710504
v 0.03357229 0.1399886 0.3863392
v 0.03012142 0.1302281 0.3923163
v 0.03357229 0.1399886 0.3863392
v 0.02925871 0.146089 0.3938106
v 0.1715662 0.146089 0.3556794
v 0.1640949 0.1399886 0.3513657
v 0.1640949 0.1399886 0.3513657
v 0.1715662 0.146089 0.3556794
v 0.1375977 0.146089 0.2289071
v 0.1332033 0.1399886 0.2360769
v 0.1332033 0.1399886 0.2360769
v 0.1375977 0.146089 0.2289071
v -0.004709844 0.146089 0.2670383
v 0.00268074 0.1399886 0.2710504
v 0.00268074 0.1399886 0.2710504
v -0.004709844 0.146089 0.2670383
v 0.02925871 0.146089 0.3938106
v 0.03357229 0.1399886 0.3863392
v 0.02925871 0.146089 0.3938106
v 0.02925871 0.1692703 0.3938106
v 0.1715662 0.1692703 0.3556794
v 0.1715662 0.146089 0.3556794
v 0.1715662 0.146089 0.3556794
v 0.1715662 0.1692703 0.3556794
v 0.1375977 0.1692703 0.2289071
v 0.1375977 0.146089 0.2289071
v 0.002896423 0.1460891 -0.273805
v 0.002896423 0.1692704 -0.273805
v -0.02891139 0.1460891 -0.3925133
v -0.02891139 0.1692704 -0.3925133
v -0.004709844 0.146089 0.2670383
v -0.004709844 0.1692703 0.2670383
v 0.02925871 0.1692703 0.3938106
v 0.02925871 0.146089 0.3938106
v -0.1394111 0.1692704 -0.2356738
v -0.1394111 0.1460891 -0.2356738
v -0.1712189 0.1692704 -0.3543821
v -0.1712189 0.1460891 -0.3543821
v -0.003231726 0.02286198 0.2678406
v -0.138201 0.02286207 -0.2358715
v 0.001749535 0.02286207 -0.2733711
v 0.1367188 0.02286198 0.230341
v 0.1375977 0.146089 0.2289071
v 0.002896423 0.1460891 -0.273805
v -0.1394111 0.1460891 -0.2356738
v -0.004709844 0.146089 0.2670383
v 0.001749535 0.02286207 -0.2733711
v -0.001239023 0.02652227 -0.2750965
v -0.031847 0.02652229 -0.3893271
v -0.03012155 0.02286209 -0.3923156
v -0.03012155 0.02286209 -0.3923156
v -0.031847 0.02652229 -0.3893271
v -0.1670835 0.02652229 -0.3530906
v -0.170072 0.02286209 -0.354816
v -0.170072 0.02286209 -0.354816
v -0.1670835 0.02652229 -0.3530906
v -0.1364755 0.02652227 -0.23886
v -0.138201 0.02286207 -0.2358715
v -0.138201 0.02286207 -0.2358715
v -0.1364755 0.02652227 -0.23886
v -0.001239023 0.02652227 -0.2750965
v 0.001749535 0.02286207 -0.2733711
v -0.02891139 0.1460891 -0.3925133
v -0.03063683 0.1424289 -0.3895248
v -9.213448E-05 0.1424289 -0.2755304
v 0.002896423 0.1460891 -0.273805
v 0.002896423 0.1460891 -0.273805
v -9.213448E-05 0.1424289 -0.2755304
v -0.1376857 0.1424289 -0.2386623
v -0.1394111 0.1460891 -0.2356738
v -0.1394111 0.1460891 -0.2356738
v -0.1376857 0.1424289 -0.2386623
v -0.1682304 0.1424289 -0.3526567
v -0.1712189 0.1460891 -0.3543821
v -0.1712189 0.1460891 -0.3543821
v -0.1682304 0.1424289 -0.3526567
v -0.03063683 0.1424289 -0.3895248
v -0.02891139 0.1460891 -0.3925133
v -0.001239023 0.02652227 -0.2750965
v 0.003243809 0.03140254 -0.2725084
v -0.02925883 0.03140256 -0.3938099
v -0.031847 0.02652229 -0.3893271
v -0.031847 0.02652229 -0.3893271
v -0.02925883 0.03140256 -0.3938099
v -0.1715663 0.03140256 -0.3556787
v -0.1670835 0.02652229 -0.3530906
v -0.1670835 0.02652229 -0.3530906
v -0.1715663 0.03140256 -0.3556787
v -0.1390637 0.03140254 -0.2343772
v -0.1364755 0.02652227 -0.23886
v -0.1364755 0.02652227 -0.23886
v -0.1390637 0.03140254 -0.2343772
v 0.003243809 0.03140254 -0.2725084
v -0.001239023 0.02652227 -0.2750965
v -0.03063683 0.1424289 -0.3895248
v -0.02804868 0.1375486 -0.3940076
v 0.004390688 0.1375486 -0.2729422
v -9.213448E-05 0.1424289 -0.2755304
v -9.213448E-05 0.1424289 -0.2755304
v 0.004390688 0.1375486 -0.2729422
v -0.1402739 0.1375486 -0.2341795
v -0.1376857 0.1424289 -0.2386623
v -0.1376857 0.1424289 -0.2386623
v -0.1402739 0.1375486 -0.2341795
v -0.1727132 0.1375486 -0.3552448
v -0.1682304 0.1424289 -0.3526567
v -0.1682304 0.1424289 -0.3526567
v -0.1727132 0.1375486 -0.3552448
v -0.02804868 0.1375486 -0.3940076
v -0.03063683 0.1424289 -0.3895248
v 0.003243809 0.03140254 -0.2725084
v 0.004390688 0.1375486 -0.2729422
v -0.02804868 0.1375486 -0.3940076
v -0.02925883 0.03140256 -0.3938099
v -0.02925883 0.03140256 -0.3938099
v -0.02804868 0.1375486 -0.3940076
v -0.1727132 0.1375486 -0.3552448
v -0.1715663 0.03140256 -0.3556787
v -0.1715663 0.03140256 -0.3556787
v -0.1727132 0.1375486 -0.3552448
v -0.1402739 0.1375486 -0.2341795
v -0.1390637 0.03140254 -0.2343772
v -0.1390637 0.03140254 -0.2343772
v -0.1402739 0.1375486 -0.2341795
v 0.004390688 0.1375486 -0.2729422
v 0.003243809 0.03140254 -0.2725084
v -0.1712189 0.1460891 -0.3543821
v -0.02891139 0.1460891 -0.3925133
v -0.02891139 0.1692704 -0.3925133
v -0.1712189 0.1692704 -0.3543821
v -0.170072 1.204014E-07 -0.354816
v -0.03012155 1.204014E-07 -0.3923156
v -0.03012155 0.02286209 -0.3923156
v -0.170072 0.02286209 -0.354816
vt 0.1742557 0.2082838
vt 0.1742557 0.2022249
vt 0.1671267 0.2022249
vt 0.1671267 0.2082838
vt 0.1671267 0.1765661
vt 0.1742557 0.1765661
vt 0.1671267 0.1702254
vt 0.1742557 0.1702254
vt 0.1116171 0.1112111
vt 0.1104922 0.1112111
vt 0.1104922 0.1183401
vt 0.1116171 0.1183401
vt 0.1017876 0.2082419
vt 0.1017876 0.2021449
vt 0.1006556 0.2021449
vt 0.1006556 0.2082419
vt 0.1006556 0.1763249
vt 0.1017876 0.1763249
vt 0.1006556 0.1699444
vt 0.1017876 0.1699444
vt 0.1140172 0.2082419
vt 0.1140172 0.2021449
vt 0.1128853 0.2021449
vt 0.1128853 0.2082419
vt 0.1140172 0.2340619
vt 0.1128853 0.2340619
vt 0.1140172 0.2404425
vt 0.1128853 0.2404425
vt 0.1495922 0.2402825
vt 0.1495922 0.2338248
vt 0.1423431 0.2338248
vt 0.1423431 0.2402825
vt 0.1423431 0.2082169
vt 0.1495922 0.2082169
vt 0.1423431 0.20217
vt 0.1495922 0.20217
vt 0.2402009 0.2406363
vt 0.2399598 0.2403952
vt 0.2332833 0.2403952
vt 0.2330422 0.2406363
vt 0.2330422 0.2406363
vt 0.2332833 0.2403952
vt 0.2332833 0.234498
vt 0.2330422 0.2342692
vt 0.2330422 0.2342692
vt 0.2332833 0.234498
vt 0.2399598 0.234498
vt 0.2402009 0.2342692
vt 0.2402009 0.2342692
vt 0.2399598 0.234498
vt 0.2399598 0.2403952
vt 0.2402009 0.2406363
vt 0.0933038 0.0834468
vt 0.09303465 0.08317763
vt 0.09303465 0.09116811
vt 0.0933038 0.09089896
vt 0.0933038 0.09089896
vt 0.09303465 0.09116811
vt 0.1001416 0.09116811
vt 0.09988618 0.09089896
vt 0.09988618 0.09089896
vt 0.1001416 0.09116811
vt 0.1001416 0.08317763
vt 0.09988618 0.0834468
vt 0.09988618 0.0834468
vt 0.1001416 0.08317763
vt 0.09303465 0.08317763
vt 0.0933038 0.0834468
vt 0.1970711 0.07298532
vt 0.1921235 0.07298532
vt 0.1921235 0.08015049
vt 0.1970711 0.08015049
vt 0.1002932 0.1699444
vt 0.09533963 0.1699444
vt 0.09533963 0.1763249
vt 0.1002932 0.1763249
vt 0.09915596 0.07248563
vt 0.09416434 0.07248563
vt 0.09416434 0.07971454
vt 0.09915596 0.07971454
vt 0.1125228 0.2340619
vt 0.1075693 0.2340619
vt 0.1075693 0.2404425
vt 0.1125228 0.2404425
vt 0.1921235 0.07298532
vt 0.1916408 0.07322669
vt 0.1916408 0.07990915
vt 0.1921235 0.08015049
vt 0.09533963 0.1699444
vt 0.09485638 0.170186
vt 0.09485638 0.1760957
vt 0.09533963 0.1763249
vt 0.09416434 0.07248563
vt 0.09367734 0.07272911
vt 0.09367734 0.07947105
vt 0.09416434 0.07971454
vt 0.1075693 0.2340619
vt 0.107086 0.2342912
vt 0.107086 0.2402008
vt 0.1075693 0.2404425
vt 0.121481 0.185771
vt 0.1211241 0.1854141
vt 0.1211241 0.1940347
vt 0.121481 0.1936778
vt 0.09485638 0.170186
vt 0.09455433 0.169884
vt 0.09455433 0.1763823
vt 0.09485638 0.1760957
vt 0.09367734 0.07272911
vt 0.09337297 0.07242474
vt 0.09337297 0.07977542
vt 0.09367734 0.07947105
vt 0.107086 0.2342912
vt 0.106784 0.2340046
vt 0.106784 0.2405029
vt 0.107086 0.2402008
vt 0.1360763 0.2102268
vt 0.1349357 0.2102268
vt 0.1349357 0.2174759
vt 0.1360763 0.2174759
vt 0.09455433 0.169884
vt 0.09340656 0.169884
vt 0.09340656 0.1763823
vt 0.09455433 0.1763823
vt 0.09455433 0.202151
vt 0.09340656 0.202151
vt 0.09455433 0.2082359
vt 0.09340656 0.2082359
vt 0.106784 0.2340046
vt 0.1056362 0.2340046
vt 0.1056362 0.2405029
vt 0.106784 0.2405029
vt 0.1056362 0.2082359
vt 0.106784 0.2082359
vt 0.1056362 0.2021509
vt 0.106784 0.2021509
vt 0.2402009 0.2342692
vt 0.2402009 0.2085036
vt 0.2330422 0.2085036
vt 0.2330422 0.2342692
vt 0.1423431 0.06247342
vt 0.1423431 0.0880813
vt 0.1495922 0.0880813
vt 0.1495922 0.06247342
vt 0.1006556 0.2021449
vt 0.1004744 0.2022657
vt 0.1004744 0.2081211
vt 0.1006556 0.2082419
vt 0.2081168 0.08408225
vt 0.2079339 0.08420417
vt 0.2079339 0.09119913
vt 0.2081168 0.09132105
vt 0.1128853 0.2021449
vt 0.112704 0.2022657
vt 0.112704 0.2081211
vt 0.1128853 0.2082419
vt 0.1977694 0.08408225
vt 0.1975865 0.08420417
vt 0.1975865 0.09119913
vt 0.1977694 0.09132105
vt 0.09455433 0.2082359
vt 0.09473553 0.2081151
vt 0.09473553 0.2022718
vt 0.09455433 0.202151
vt 0.1916128 0.091382
vt 0.1917956 0.09126008
vt 0.1917956 0.08414322
vt 0.1916128 0.0840213
vt 0.106784 0.2082359
vt 0.1069652 0.2081151
vt 0.1069652 0.2022718
vt 0.106784 0.2021509
vt 0.2019602 0.091382
vt 0.2021431 0.09126008
vt 0.2021431 0.08414322
vt 0.2019602 0.0840213
vt 0.1004744 0.2022657
vt 0.1002328 0.2020845
vt 0.1002328 0.2083023
vt 0.1004744 0.2081211
vt 0.2079339 0.08420417
vt 0.2076901 0.0840213
vt 0.2076901 0.091382
vt 0.2079339 0.09119913
vt 0.112704 0.2022657
vt 0.1124624 0.2020845
vt 0.1124624 0.2083023
vt 0.112704 0.2081211
vt 0.1975865 0.08420417
vt 0.1973427 0.0840213
vt 0.1973427 0.091382
vt 0.1975865 0.09119913
vt 0.09473553 0.2081151
vt 0.09497717 0.2082963
vt 0.09497717 0.2020906
vt 0.09473553 0.2022718
vt 0.1917956 0.09126008
vt 0.1920395 0.09144294
vt 0.1920395 0.08396035
vt 0.1917956 0.08414322
vt 0.1069652 0.2081151
vt 0.1072068 0.2082963
vt 0.1072068 0.2020906
vt 0.1069652 0.2022718
vt 0.2021431 0.09126008
vt 0.2023869 0.09144294
vt 0.2023869 0.08396035
vt 0.2021431 0.08414322
vt 0.1002328 0.2020845
vt 0.09497717 0.2020906
vt 0.09497717 0.2082963
vt 0.1002328 0.2083023
vt 0.2076901 0.0840213
vt 0.2023869 0.08396035
vt 0.2023869 0.09144294
vt 0.2076901 0.091382
vt 0.1124624 0.2020845
vt 0.1072068 0.2020906
vt 0.1072068 0.2082963
vt 0.1124624 0.2083023
vt 0.1973427 0.0840213
vt 0.1920395 0.08396035
vt 0.1920395 0.09144294
vt 0.1973427 0.091382
vt 0.106784 0.2021509
vt 0.09455433 0.2082359
vt 0.09340656 0.2082359
vt 0.1495922 0.20217
vt 0.1742557 0.2082838
vt 0.1671267 0.2082838
vt 0.1006556 0.2082419
vt 0.1128853 0.2021449
vn 0 -1 -1.589653E-07
vn 0 -1 -1.589653E-07
vn 0 -1 -1.589653E-07
vn 0 -1 -1.589653E-07
vn 0 -1 -1.563692E-07
vn 0 -1 -1.563692E-07
vn 0 -1 -1.563692E-07
vn 0 -1 -1.563692E-07
vn 0.258819 0 0.9659258
vn 0.258819 0 0.9659258
vn 0.258819 0 0.9659258
vn 0.258819 0 0.9659258
vn 0.9659258 0 -0.2588191
vn 0.9659258 0 -0.2588191
vn 0.9659258 0 -0.2588191
vn 0.9659258 0 -0.2588191
vn 0.9659258 0 -0.2588191
vn 0.9659258 0 -0.2588191
vn 0.9659258 0 -0.2588191
vn 0.9659258 0 -0.2588191
vn -0.9659258 0 0.258819
vn -0.9659258 0 0.2588191
vn -0.9659258 0 0.258819
vn -0.9659258 0 0.2588191
vn -0.9659258 0 0.258819
vn -0.9659258 0 0.258819
vn -0.9659258 0 0.258819
vn -0.9659258 0 0.258819
vn 0 1 1.403761E-07
vn 0 1 1.403761E-07
vn 0 1 1.403761E-07
vn 0 1 1.403761E-07
vn 0 1 2.99824E-07
vn 0 1 2.99824E-07
vn 0 1 2.99824E-07
vn 0 1 2.99824E-07
vn 0.1552908 0.800002 0.579553
vn 0.1552908 0.800002 0.579553
vn 0.1552908 0.8000019 0.579553
vn 0.1552908 0.8000019 0.579553
vn 0.5795557 0.7999998 -0.1552914
vn 0.5795556 0.7999998 -0.1552914
vn 0.5795556 0.7999998 -0.1552914
vn 0.5795556 0.7999998 -0.1552914
vn -0.1604961 0.7845155 -0.5989795
vn -0.1604961 0.7845155 -0.5989794
vn -0.1604961 0.7845155 -0.5989795
vn -0.160496 0.7845155 -0.5989794
vn -0.5795556 0.7999998 0.1552915
vn -0.5795556 0.7999998 0.1552915
vn -0.5795556 0.7999998 0.1552916
vn -0.5795556 0.7999998 0.1552916
vn 0.1552907 -0.8000022 0.5795528
vn 0.1552907 -0.8000022 0.5795527
vn 0.1552907 -0.8000022 0.5795527
vn 0.1552907 -0.8000022 0.5795528
vn 0.579554 -0.8000011 -0.1552911
vn 0.579554 -0.8000011 -0.1552911
vn 0.579554 -0.8000011 -0.1552911
vn 0.579554 -0.8000011 -0.1552911
vn -0.1604965 -0.7845141 -0.5989811
vn -0.1604965 -0.7845141 -0.5989811
vn -0.1604965 -0.7845141 -0.5989811
vn -0.1604965 -0.7845141 -0.5989811
vn -0.5795537 -0.8000014 0.1552908
vn -0.5795537 -0.8000014 0.1552908
vn -0.5795537 -0.8000014 0.1552908
vn -0.5795537 -0.8000014 0.1552908
vn 0.2588189 0 0.9659258
vn 0.2588189 0 0.9659258
vn 0.2588189 0 0.9659258
vn 0.2588189 0 0.9659258
vn 0.9659258 0 -0.2588188
vn 0.9659258 0 -0.2588188
vn 0.9659258 0 -0.2588188
vn 0.9659258 0 -0.2588188
vn -0.2588191 3.815915E-07 -0.9659257
vn -0.2588192 3.815915E-07 -0.9659257
vn -0.2588192 3.815915E-07 -0.9659257
vn -0.2588192 3.815915E-07 -0.9659257
vn -0.9659258 0 0.2588191
vn -0.9659257 0 0.2588191
vn -0.9659257 0 0.2588191
vn -0.9659258 0 0.2588191
vn 0.2314947 0.4472153 0.8639495
vn 0.2314947 0.4472153 0.8639495
vn 0.2314947 0.4472153 0.8639495
vn 0.2314947 0.4472153 0.8639495
vn 0.8639504 0.4472134 -0.2314947
vn 0.8639504 0.4472134 -0.2314947
vn 0.8639504 0.4472134 -0.2314947
vn 0.8639504 0.4472134 -0.2314947
vn -0.2338381 0.4286282 -0.8726956
vn -0.2338381 0.4286282 -0.8726956
vn -0.2338381 0.4286282 -0.8726956
vn -0.2338381 0.4286282 -0.8726956
vn -0.8639504 0.4472134 0.2314949
vn -0.8639504 0.4472134 0.231495
vn -0.8639504 0.4472134 0.231495
vn -0.8639504 0.4472134 0.2314949
vn 0.1830121 -0.7071093 0.6830103
vn 0.1830121 -0.7071093 0.6830103
vn 0.1830121 -0.7071093 0.6830103
vn 0.1830121 -0.7071093 0.6830103
vn 0.6830127 -0.7071066 -0.1830129
vn 0.6830128 -0.7071066 -0.1830129
vn 0.6830127 -0.7071066 -0.1830129
vn 0.6830127 -0.7071066 -0.1830129
vn -0.1877533 -0.6883038 -0.7007045
vn -0.1877533 -0.6883038 -0.7007045
vn -0.1877533 -0.6883038 -0.7007045
vn -0.1877533 -0.6883038 -0.7007045
vn -0.6830128 -0.7071068 0.1830126
vn -0.6830128 -0.7071068 0.1830126
vn -0.6830127 -0.7071067 0.1830127
vn -0.6830127 -0.7071067 0.1830127
vn 0.258819 0 0.9659258
vn 0.258819 0 0.9659258
vn 0.258819 0 0.9659258
vn 0.258819 0 0.9659258
vn 0.9659258 0 -0.2588191
vn 0.9659258 0 -0.2588191
vn 0.9659258 0 -0.2588191
vn 0.9659258 0 -0.2588191
vn 0.9659258 0 -0.2588191
vn 0.9659258 0 -0.2588191
vn 0.9659258 0 -0.258819
vn 0.9659258 0 -0.258819
vn -0.9659257 0 0.2588192
vn -0.9659257 0 0.2588192
vn -0.9659257 0 0.2588192
vn -0.9659257 0 0.2588192
vn -0.9659258 3.012778E-07 0.258819
vn -0.9659258 3.012777E-07 0.258819
vn -0.9659258 3.012777E-07 0.258819
vn -0.9659258 3.012777E-07 0.258819
vn 0 1 1.589819E-07
vn 0 1 1.589819E-07
vn 0 1 1.589819E-07
vn 0 1 1.589819E-07
vn 0 -1 -1.592982E-07
vn 0 -1 -1.592982E-07
vn 0 -1 -1.592982E-07
vn 0 -1 -1.592982E-07
vn 0.8036979 0.5547016 -0.2153501
vn 0.8036979 0.5547017 -0.2153502
vn 0.8036979 0.5547016 -0.2153501
vn 0.8036979 0.5547016 -0.2153501
vn -0.2153511 0.5546969 -0.803701
vn -0.2153511 0.5546969 -0.803701
vn -0.2153511 0.5546969 -0.803701
vn -0.2153511 0.5546968 -0.803701
vn -0.8036979 0.5547016 0.2153503
vn -0.8036979 0.5547017 0.2153503
vn -0.8036979 0.5547016 0.2153503
vn -0.8036979 0.5547016 0.2153503
vn 0.2153505 0.5547 0.803699
vn 0.2153505 0.5547 0.803699
vn 0.2153505 0.5547 0.803699
vn 0.2153505 0.5547 0.803699
vn 0.8036976 -0.5547021 -0.2153503
vn 0.8036976 -0.554702 -0.2153502
vn 0.8036976 -0.5547021 -0.2153503
vn 0.8036976 -0.5547021 -0.2153503
vn 0.2153505 -0.5547 0.803699
vn 0.2153505 -0.5547 0.803699
vn 0.2153505 -0.5547 0.803699
vn 0.2153505 -0.5547 0.803699
vn -0.8036983 -0.5547012 0.2153502
vn -0.8036983 -0.5547012 0.2153503
vn -0.8036982 -0.5547011 0.2153502
vn -0.8036983 -0.5547012 0.2153503
vn -0.2153504 -0.5546998 -0.8036991
vn -0.2153504 -0.5546998 -0.8036991
vn -0.2153504 -0.5546998 -0.8036991
vn -0.2153504 -0.5546998 -0.8036991
vn 0.7727401 -0.6000008 -0.2070551
vn 0.7727401 -0.6000008 -0.2070551
vn 0.7727401 -0.6000008 -0.2070551
vn 0.7727401 -0.6000008 -0.2070551
vn -0.2070554 -0.5999991 -0.7727413
vn -0.2070554 -0.5999991 -0.7727413
vn -0.2070554 -0.5999991 -0.7727413
vn -0.2070554 -0.5999991 -0.7727413
vn -0.7727405 -0.6000002 0.2070551
vn -0.7727405 -0.6000003 0.2070551
vn -0.7727405 -0.6000002 0.2070551
vn -0.7727405 -0.6000002 0.2070551
vn 0.2070552 -0.6000004 0.7727404
vn 0.2070552 -0.6000004 0.7727404
vn 0.2070552 -0.6000004 0.7727404
vn 0.2070552 -0.6000004 0.7727404
vn 0.7727402 0.6000004 -0.2070551
vn 0.7727404 0.6000005 -0.2070551
vn 0.7727404 0.6000005 -0.2070551
vn 0.7727404 0.6000005 -0.2070551
vn 0.2070553 0.6000001 0.7727406
vn 0.2070553 0.6 0.7727406
vn 0.2070553 0.6000001 0.7727406
vn 0.2070553 0.6 0.7727406
vn -0.7727401 0.6000007 0.2070552
vn -0.7727401 0.6000007 0.2070552
vn -0.7727401 0.6000007 0.2070552
vn -0.7727401 0.6000007 0.2070552
vn -0.2070549 0.6000012 -0.7727398
vn -0.2070549 0.6000012 -0.7727398
vn -0.2070549 0.6000012 -0.7727398
vn -0.2070549 0.6000012 -0.7727398
vn 0.965862 -0.01149369 -0.258802
vn 0.965862 -0.01149369 -0.258802
vn 0.965862 -0.01149369 -0.2588019
vn 0.965862 -0.01149369 -0.258802
vn -0.2588189 0.001151512 -0.9659252
vn -0.2588188 0.001151512 -0.9659252
vn -0.2588188 0.001151512 -0.9659252
vn -0.2588189 0.001151512 -0.9659252
vn -0.965862 -0.01149377 0.258802
vn -0.965862 -0.01149377 0.2588019
vn -0.965862 -0.01149377 0.2588019
vn -0.965862 -0.01149377 0.2588019
vn 0.2588189 0.00115163 0.9659252
vn 0.2588189 0.00115163 0.9659252
vn 0.2588189 0.00115163 0.9659252
vn 0.2588189 0.00115163 0.9659252
vn -0.2588189 1.3962E-07 -0.9659258
vn -0.2588189 1.3962E-07 -0.9659258
vn -0.2588189 1.3962E-07 -0.9659258
vn -0.2588189 1.3962E-07 -0.9659258
vn -0.258819 0 -0.9659258
vn -0.258819 0 -0.9659258
vn -0.258819 0 -0.9659258
vn -0.258819 0 -0.9659258
g TreeBoard003_0
f 3/3/3 2/2/2 1/1/1
f 4/4/4 3/3/3 1/1/1
f 2/2/2 3/3/3 5/5/5
f 6/6/6 2/2/2 5/5/5
f 6/6/6 5/5/5 7/7/7
f 8/8/8 6/6/6 7/7/7
f 11/11/11 10/10/10 9/9/9
f 12/12/12 11/11/11 9/9/9
f 15/15/15 14/14/14 13/13/13
f 16/16/16 15/15/15 13/13/13
f 14/14/14 15/15/15 17/17/17
f 18/18/18 14/14/14 17/17/17
f 18/18/18 17/17/17 19/19/19
f 20/20/20 18/18/18 19/19/19
f 23/23/23 22/22/22 21/21/21
f 24/24/24 23/23/23 21/21/21
f 24/24/24 21/21/21 25/25/25
f 26/26/26 24/24/24 25/25/25
f 26/26/26 25/25/25 27/27/27
f 28/28/28 26/26/26 27/27/27
f 31/31/31 30/30/30 29/29/29
f 32/32/32 31/31/31 29/29/29
f 31/31/31 33/33/33 30/30/30
f 33/33/33 34/34/34 30/30/30
f 33/33/33 35/35/35 34/34/34
f 35/35/35 36/36/36 34/34/34
f 39/39/39 38/38/38 37/37/37
f 40/40/40 39/39/39 37/37/37
f 43/43/43 42/42/42 41/41/41
f 44/44/44 43/43/43 41/41/41
f 47/47/47 46/46/46 45/45/45
f 48/48/48 47/47/47 45/45/45
f 51/51/51 50/50/50 49/49/49
f 52/52/52 51/51/51 49/49/49
f 55/55/55 54/54/54 53/53/53
f 56/56/56 55/55/55 53/53/53
f 59/59/59 58/58/58 57/57/57
f 60/60/60 59/59/59 57/57/57
f 63/63/63 62/62/62 61/61/61
f 64/64/64 63/63/63 61/61/61
f 67/67/67 66/66/66 65/65/65
f 68/68/68 67/67/67 65/65/65
f 71/71/71 70/70/70 69/69/69
f 72/72/72 71/71/71 69/69/69
f 75/75/75 74/74/74 73/73/73
f 76/76/76 75/75/75 73/73/73
f 79/79/79 78/78/78 77/77/77
f 80/80/80 79/79/79 77/77/77
f 83/83/83 82/82/82 81/81/81
f 84/84/84 83/83/83 81/81/81
f 87/87/87 86/86/86 85/85/85
f 88/88/88 87/87/87 85/85/85
f 91/91/91 90/90/90 89/89/89
f 92/92/92 91/91/91 89/89/89
f 95/95/95 94/94/94 93/93/93
f 96/96/96 95/95/95 93/93/93
f 99/99/99 98/98/98 97/97/97
f 100/100/100 99/99/99 97/97/97
f 103/103/103 102/102/102 101/101/101
f 104/104/104 103/103/103 101/101/101
f 107/107/107 106/106/106 105/105/105
f 108/108/108 107/107/107 105/105/105
f 111/111/111 110/110/110 109/109/109
f 112/112/112 111/111/111 109/109/109
f 115/115/115 114/114/114 113/113/113
f 116/116/116 115/115/115 113/113/113
f 119/119/119 118/118/118 117/117/117
f 120/120/120 119/119/119 117/117/117
f 123/123/123 122/122/122 121/121/121
f 124/124/124 123/123/123 121/121/121
f 124/124/124 125/125/125 123/123/123
f 125/125/125 126/126/126 123/123/123
f 125/125/125 127/127/127 126/126/126
f 127/127/127 128/128/128 126/126/126
f 131/131/131 130/130/130 129/129/129
f 132/132/132 131/131/131 129/129/129
f 130/130/130 133/133/133 129/129/129
f 133/133/133 134/134/134 129/129/129
f 133/133/133 135/135/135 134/134/134
f 135/135/135 136/136/136 134/134/134
f 139/139/139 138/138/138 137/137/137
f 140/140/140 139/139/139 137/137/137
f 143/143/143 142/142/142 141/141/141
f 144/144/144 143/143/143 141/141/141
f 147/147/147 146/146/146 145/145/145
f 148/148/148 147/147/147 145/145/145
f 151/151/151 150/150/150 149/149/149
f 152/152/152 151/151/151 149/149/149
f 155/155/155 154/154/154 153/153/153
f 156/156/156 155/155/155 153/153/153
f 159/159/159 158/158/158 157/157/157
f 160/160/160 159/159/159 157/157/157
f 163/163/163 162/162/162 161/161/161
f 164/164/164 163/163/163 161/161/161
f 167/167/167 166/166/166 165/165/165
f 168/168/168 167/167/167 165/165/165
f 171/171/171 170/170/170 169/169/169
f 172/172/172 171/171/171 169/169/169
f 175/175/175 174/174/174 173/173/173
f 176/176/176 175/175/175 173/173/173
f 179/179/179 178/178/178 177/177/177
f 180/180/180 179/179/179 177/177/177
f 183/183/183 182/182/182 181/181/181
f 184/184/184 183/183/183 181/181/181
f 187/187/187 186/186/186 185/185/185
f 188/188/188 187/187/187 185/185/185
f 191/191/191 190/190/190 189/189/189
f 192/192/192 191/191/191 189/189/189
f 195/195/195 194/194/194 193/193/193
f 196/196/196 195/195/195 193/193/193
f 199/199/199 198/198/198 197/197/197
f 200/200/200 199/199/199 197/197/197
f 203/203/203 202/202/202 201/201/201
f 204/204/204 203/203/203 201/201/201
f 207/207/207 206/206/206 205/205/205
f 208/208/208 207/207/207 205/205/205
f 211/211/211 210/210/210 209/209/209
f 212/212/212 211/211/211 209/209/209
f 215/215/215 214/214/214 213/213/213
f 216/216/216 215/215/215 213/213/213
f 219/219/219 218/218/218 217/217/217
f 220/220/220 219/219/219 217/217/217
f 223/223/223 222/222/222 221/221/221
f 224/224/224 223/223/223 221/221/221
f 227/227/227 226/226/226 225/225/225
f 228/228/228 227/227/227 225/225/225
f 231/231/231 230/230/230 229/229/229
f 232/232/232 231/231/231 229/229/229
